name rise44.8762peak52.3436fall86.788.mot
datacolumns 19
datarows 26
range 17.49159900000000 17.53326900000000
endheader
time	ground_force1_vx	ground_force1_vy	ground_force1_vz	ground_force1_px	ground_force1_py	ground_force1_pz	ground_force2_vx	ground_force2_vy	ground_force2_vz	ground_force2_px	ground_force2_py	ground_force2_pz	ground_torque1_x	ground_torque1_y	ground_torque1_z	ground_torque2_x	ground_torque2_y	ground_torque2_z	
17.49159900000000	-43.47240100000000	796.14611600000001	59.02594900000000	0.07595200000000	0.00000000000000	0.11002700000000	-13.09898500000000	74.13226899999999	16.60423000000000	0.34014400000000	0.00000000000000	-0.07850500000000	0.00000000000000	15.89448700000000	0.00000000000000	0.00000000000000	10.13837600000000	0.00000000000000	
17.49326900000000	-43.74035000000000	793.91377000000000	58.94954900000000	0.07537700000000	0.00000000000000	0.11000700000000	-13.13880300000000	79.55341900000001	17.22883500000000	0.34246800000000	0.00000000000000	-0.07894400000000	0.00000000000000	15.82690000000000	0.00000000000000	0.00000000000000	10.62948700000000	0.00000000000000	
17.49492900000000	-44.02270700000000	791.58321400000000	58.84644800000000	0.07481000000000	0.00000000000000	0.10998100000000	-13.02563200000000	84.80135000000000	17.72625500000000	0.34465900000000	0.00000000000000	-0.07936500000000	0.00000000000000	15.76128300000000	0.00000000000000	0.00000000000000	11.05309300000000	0.00000000000000	
17.49659700000000	-44.32002900000000	789.15384200000005	58.71643000000000	0.07425100000000	0.00000000000000	0.10995000000000	-12.77805000000000	89.91365700000000	18.11010400000000	0.34672800000000	0.00000000000000	-0.07977300000000	0.00000000000000	15.69779700000000	0.00000000000000	0.00000000000000	11.41587600000000	0.00000000000000	
17.49826300000000	-44.63282700000000	786.62503300000003	58.55933200000000	0.07369800000000	0.00000000000000	0.10991300000000	-12.41634400000000	94.93618300000000	18.39610200000000	0.34868600000000	0.00000000000000	-0.08016700000000	0.00000000000000	15.63659800000000	0.00000000000000	0.00000000000000	11.72593900000000	0.00000000000000	
17.49992800000000	-44.96156100000000	783.99614399999996	58.37503900000000	0.07315300000000	0.00000000000000	0.10987100000000	-11.96086400000000	99.91827700000000	18.60055100000000	0.35054300000000	0.00000000000000	-0.08055100000000	0.00000000000000	15.57782700000000	0.00000000000000	0.00000000000000	11.99192700000000	0.00000000000000	
17.50159800000000	-45.30664300000000	781.26651000000004	58.16348600000000	0.07261400000000	0.00000000000000	0.10982300000000	-11.43065900000000	104.90857300000000	18.73901800000000	0.35230600000000	0.00000000000000	-0.08092400000000	0.00000000000000	15.52162100000000	0.00000000000000	0.00000000000000	12.22224800000000	0.00000000000000	
17.50326200000000	-45.66842500000000	778.43544199999997	57.92465800000000	0.07208200000000	0.00000000000000	0.10977000000000	-10.84243700000000	109.95152899999999	18.82530900000000	0.35398200000000	0.00000000000000	-0.08129000000000	0.00000000000000	15.46810000000000	0.00000000000000	0.00000000000000	12.42445100000000	0.00000000000000	
17.50493700000000	-46.04720300000000	775.50222599999995	57.65858800000000	0.07155600000000	0.00000000000000	0.10971100000000	-10.20988500000000	115.08486900000000	18.87075100000000	0.35557600000000	0.00000000000000	-0.08164800000000	0.00000000000000	15.41737500000000	0.00000000000000	0.00000000000000	12.60477400000000	0.00000000000000	
17.50660300000000	-46.44320700000000	772.46612100000004	57.36535800000000	0.07103500000000	0.00000000000000	0.10964700000000	-9.54333200000000	120.33795000000001	18.88378400000000	0.35709400000000	0.00000000000000	-0.08200000000000	0.00000000000000	15.36954600000000	0.00000000000000	0.00000000000000	12.76786800000000	0.00000000000000	
17.50826800000000	-46.85660600000000	769.32635900000002	57.04509700000000	0.07051900000000	0.00000000000000	0.10957700000000	-8.84972400000000	125.73102700000000	18.86984900000000	0.35854000000000	0.00000000000000	-0.08234600000000	0.00000000000000	15.32469800000000	0.00000000000000	0.00000000000000	12.91669800000000	0.00000000000000	
17.50992800000000	-47.28749700000000	766.08214699999996	56.69798100000000	0.07000800000000	0.00000000000000	0.10950300000000	-8.13284800000000	131.27529500000000	18.83151200000000	0.35991600000000	0.00000000000000	-0.08268700000000	0.00000000000000	15.28290300000000	0.00000000000000	0.00000000000000	13.05258100000000	0.00000000000000	
17.51159800000000	-47.73590700000000	762.73266300000000	56.32422900000000	0.06950000000000	0.00000000000000	0.10942300000000	-7.39375500000000	136.97357600000001	18.76878400000000	0.36122800000000	0.00000000000000	-0.08302400000000	0.00000000000000	15.24421900000000	0.00000000000000	0.00000000000000	13.17534900000000	0.00000000000000	
17.51326200000000	-48.20178800000000	759.27706100000000	55.92410900000000	0.06899600000000	0.00000000000000	0.10933700000000	-6.63129900000000	142.82146900000001	18.67957400000000	0.36247600000000	0.00000000000000	-0.08335700000000	0.00000000000000	15.20869000000000	0.00000000000000	0.00000000000000	13.28359000000000	0.00000000000000	
17.51493600000000	-48.68501600000000	755.71446900000001	55.49792700000000	0.06849600000000	0.00000000000000	0.10924700000000	-5.84274800000000	148.80879700000000	18.56021300000000	0.36366500000000	0.00000000000000	-0.08368700000000	0.00000000000000	15.17634500000000	0.00000000000000	0.00000000000000	13.37494000000000	0.00000000000000	
17.51659800000000	-49.18538500000000	752.04399200000000	55.04603600000000	0.06799700000000	0.00000000000000	0.10915200000000	-5.02439200000000	154.92119299999999	18.40600700000000	0.36479400000000	0.00000000000000	-0.08401300000000	0.00000000000000	15.14719700000000	0.00000000000000	0.00000000000000	13.44640500000000	0.00000000000000	
17.51826400000000	-49.70261000000000	748.26471400000003	54.56882500000000	0.06750000000000	0.00000000000000	0.10905200000000	-4.17211300000000	161.14166700000001	18.21175800000000	0.36586700000000	0.00000000000000	-0.08433800000000	0.00000000000000	15.12124500000000	0.00000000000000	0.00000000000000	13.49465800000000	0.00000000000000	
17.51992800000000	-50.23632100000000	744.37570000000005	54.06672400000000	0.06700400000000	0.00000000000000	0.10894700000000	-3.28187700000000	167.45206700000000	17.97223800000000	0.36688400000000	0.00000000000000	-0.08466000000000	0.00000000000000	15.09847100000000	0.00000000000000	0.00000000000000	13.51632400000000	0.00000000000000	
17.52159900000000	-50.78606000000000	740.37599699999998	53.54020200000000	0.06650900000000	0.00000000000000	0.10883800000000	-2.35013500000000	173.83431899999999	17.68257900000000	0.36784700000000	0.00000000000000	-0.08497900000000	0.00000000000000	15.07884000000000	0.00000000000000	0.00000000000000	13.50821300000000	0.00000000000000	
17.52326300000000	-51.35128500000000	736.26464199999998	52.98976100000000	0.06601300000000	0.00000000000000	0.10872400000000	-1.37410900000000	180.27141900000001	17.33856500000000	0.36875600000000	0.00000000000000	-0.08529700000000	0.00000000000000	15.06230300000000	0.00000000000000	0.00000000000000	13.46750300000000	0.00000000000000	
17.52493100000000	-51.93136200000000	732.04066000000000	52.41594000000000	0.06551500000000	0.00000000000000	0.10860600000000	-0.35196800000000	186.74814799999999	16.93684000000000	0.36961300000000	0.00000000000000	-0.08561400000000	0.00000000000000	15.04879400000000	0.00000000000000	0.00000000000000	13.39186800000000	0.00000000000000	
17.52659600000000	-52.52556900000000	727.70307000000003	51.81930900000000	0.06501600000000	0.00000000000000	0.10848300000000	0.71708800000000	193.25150500000001	16.47500900000000	0.37041800000000	0.00000000000000	-0.08592800000000	0.00000000000000	15.03822900000000	0.00000000000000	0.00000000000000	13.27955100000000	0.00000000000000	
17.52827200000000	-53.13309200000000	723.25089000000003	51.20046900000000	0.06451400000000	0.00000000000000	0.10835700000000	1.83283800000000	199.77089200000000	15.95166800000000	0.37117200000000	0.00000000000000	-0.08624200000000	0.00000000000000	15.03051000000000	0.00000000000000	0.00000000000000	13.12938800000000	0.00000000000000	
17.52993200000000	-53.75302400000000	718.68313899999998	50.56005200000000	0.06400800000000	0.00000000000000	0.10822600000000	2.99412200000000	206.29808199999999	15.36636200000000	0.37187400000000	0.00000000000000	-0.08655300000000	0.00000000000000	15.02552000000000	0.00000000000000	0.00000000000000	12.94079300000000	0.00000000000000	
17.53159400000000	-54.38436900000000	713.99884499999996	49.89871700000000	0.06349800000000	0.00000000000000	0.10809200000000	4.19896100000000	212.82702300000000	14.71949100000000	0.37252600000000	0.00000000000000	-0.08686400000000	0.00000000000000	15.02312800000000	0.00000000000000	0.00000000000000	12.71371000000000	0.00000000000000	
17.53326900000000	-55.02603900000000	709.19704500000000	49.21714800000000	0.06298300000000	0.00000000000000	0.10795400000000	5.44472600000000	219.35351600000001	14.01218800000000	0.37312800000000	0.00000000000000	-0.08717300000000	0.00000000000000	15.02318700000000	0.00000000000000	0.00000000000000	12.44854500000000	0.00000000000000	
